Coordinates
version=1
nRows=14
nColumns=36
inDegrees=yes

Units are S.I. units (second, meters, Newtons, ...)
If the header above contains a line with 'inDegrees', this indicates whether rotational values are in degrees (yes) or radians (no).

endheader
time	pelvis_tilt	pelvis_list	pelvis_rotation	pelvis_tx	pelvis_ty	pelvis_tz	hip_flexion_r	hip_adduction_r	hip_rotation_r	knee_angle_r	knee_angle_r_beta	ankle_angle_r	subtalar_angle_r	mtp_angle_r	hip_flexion_l	hip_adduction_l	hip_rotation_l	knee_angle_l	knee_angle_l_beta	ankle_angle_l	subtalar_angle_l	mtp_angle_l	lumbar_extension	lumbar_bending	lumbar_rotation	arm_flex_r	arm_add_r	arm_rot_r	elbow_flex_r	pro_sup_r	arm_flex_l	arm_add_l	arm_rot_l	elbow_flex_l	pro_sup_l
      1.20000000	      0.72162454	      2.99198134	     -7.73169666	     -0.05008057	      1.39704361	     -0.14416850	      0.05270709	     -5.96446052	      1.80360724	      8.90398734	      0.15540390	     10.20735861	    -13.46388638	     -7.49999987	     -3.71257638	      3.05747598	      0.01202267	      1.15265129	      0.02011756	      7.62041117	     -2.83596388	     -7.49999987	     -8.21160755	     -2.57255830	      0.74425584	     10.77652850	     -8.35258637	     24.84779076	     18.61617189	     92.56038507	     11.07014153	    -11.03767111	     20.43799723	     21.01579180	     99.38454346
      1.21666670	      0.57791141	      3.00538204	     -7.80141816	     -0.04931132	      1.39668830	     -0.14382195	      0.29376750	     -5.94191849	      1.80976502	      9.03656481	      0.15771781	     10.11404977	    -13.65406094	     -7.49999987	     -3.52826297	      3.05871675	      0.10625236	      1.18445919	      0.02067271	      7.55240644	     -3.11225171	     -7.49999987	     -8.17503266	     -2.60972508	      0.50654912	     10.76665083	     -8.57617819	     25.22466098	     18.58971534	     90.59511267	     11.23388878	    -11.22964257	     20.90732359	     21.14720107	     97.08190530
      1.23333330	      0.45213223	      3.01090392	     -7.85851482	     -0.04980131	      1.39681126	     -0.14405402	      0.50933964	     -5.92037128	      1.74734115	      9.17960675	      0.16021436	     10.16941703	    -13.57414485	     -7.49999987	     -3.34164487	      3.04875221	     -0.16149517	      1.22210744	      0.02132980	      7.60884851	     -2.94817033	     -7.49999987	     -8.23995946	     -2.62651176	      0.39307857	     10.53823209	     -8.80162707	     23.17729465	     18.89769385	     93.52015370	     11.22790745	    -11.27598562	     19.18062139	     21.42718208	    100.33785276
      1.25000000	      0.29893847	      3.03176181	     -7.90216347	     -0.04885832	      1.39630923	     -0.14366676	      0.75906880	     -5.91135625	      1.69750329	      9.32013044	      0.16266696	     10.21573708	    -13.54170711	     -7.49999987	     -3.11877865	      3.06226077	     -0.28361962	      1.29167458	      0.02254397	      7.62366742	     -2.94218926	     -7.49999987	     -8.25764874	     -2.67779311	      0.17603175	     10.08398458	     -9.09594840	     22.07329880	     19.17358042	     93.86388102	     11.24177951	    -11.41855157	     18.59036459	     21.57596397	    100.52806238
      1.26666670	      0.23555772	      3.00946631	     -8.04046596	     -0.04894865	      1.39956592	     -0.14357324	      0.90197436	     -5.85245821	      1.84454419	      9.44998541	      0.16493336	     10.12779321	    -13.72851415	     -7.49999987	     -3.01403318	      3.01487657	     -1.01468244	      1.37025493	      0.02391546	      7.99167943	     -1.91765174	     -7.49999987	     -8.50172357	     -2.64734386	      0.02032899	      9.67001792	     -9.41758150	     21.87723883	     19.36067161	     88.64784465	     11.17503586	    -11.44887485	     18.26346927	     21.73337984	     93.77715512
      1.28333330	     -0.02937645	      3.10099680	     -8.00153141	     -0.04822999	      1.39906839	     -0.14321486	      1.31635566	     -5.91000308	      1.63023498	      9.68484504	      0.16903243	     10.29369763	    -13.44093014	     -7.49999987	     -2.66958491	      3.10499080	     -0.49491364	      1.41075652	      0.02462235	      7.47474231	     -2.99439783	     -7.49999987	     -8.45625455	     -2.71452662	     -0.19237292	      9.26065240	     -9.78848748	     20.55165226	     19.43879371	     93.90501970	     11.26765344	    -11.71952241	     17.48304224	     21.68709438	    100.62016920
      1.30000000	     -0.26064936	      3.14949189	     -8.07335695	     -0.04877775	      1.39898437	     -0.14341546	      1.73196602	     -5.93567346	      1.51681561	      9.88222237	      0.17247732	     10.42897543	    -13.30383629	     -7.49999987	     -2.33339607	      3.14349570	     -0.66389444	      1.54807278	      0.02701897	      7.42486875	     -2.94427476	     -7.49999987	     -8.60930429	     -2.72164786	     -0.22269735	      8.91207041	    -10.21216219	     21.23443738	     19.24498767	     91.47494952	     11.43753029	    -12.05671815	     19.18840876	     20.81602269	     98.10500356
      1.31666670	     -0.59698700	      3.20364584	     -8.13821581	     -0.05818875	      1.39505553	     -0.14152643	      2.38864239	     -5.92596572	      1.38576366	     10.19621195	      0.17795747	     10.51355306	    -13.21745021	     -7.49999987	     -1.69925155	      3.15801036	     -0.77488397	      1.84038490	      0.03212078	      7.37969918	     -3.16816488	     -7.49999987	     -8.85697919	     -2.70173671	     -0.53709462	      8.75472247	    -10.38016508	     20.56221814	     19.10204960	     90.24407330	     11.13539693	    -12.29169079	     18.66585778	     20.08666394	     97.13520192
      1.33333330	     -1.12007119	      3.28360220	     -8.24514680	     -0.05819848	      1.39455005	     -0.14147832	      3.27678570	     -5.91693622	      1.49249922	     10.60964817	      0.18517329	     10.39488795	    -13.46311218	     -7.49999987	     -0.84636678	      3.15384599	     -1.13000802	      2.17433303	      0.03794927	      7.38532843	     -3.05785191	     -7.49999987	     -9.01964674	     -2.65679656	     -0.45789184	      8.21975664	    -10.57447886	     17.98347727	     19.32084616	     92.71240057	     10.80365341	    -12.43959084	     17.37207587	     19.30137697	    100.16651488
      1.35000000	     -1.66533809	      3.35990881	     -8.32730994	     -0.05729962	      1.38672575	     -0.14119322	      4.22745438	     -5.91286310	      1.35110808	     11.12394133	      0.19414940	     10.52876333	    -13.40269274	     -7.49999987	      0.10922222	      3.14329804	     -1.35317502	      2.61806535	      0.04569386	      7.43602916	     -3.09804235	     -7.49999987	     -9.17840611	     -2.57603133	     -0.70519117	      7.75768188	    -10.91619580	     17.82455768	     18.83968460	     91.77526813	     10.52067523	    -12.65800363	     17.66057624	     18.06697330	     99.64852908
      1.36666670	     -2.16310273	      3.43165895	     -8.44352250	     -0.04910303	      1.38312411	     -0.13625319	      5.06003870	     -5.89949864	      1.32108567	     11.57541030	      0.20202902	     10.70249798	    -13.41949016	     -7.49999987	      0.93588499	      3.11212372	     -1.61940223	      3.05432051	      0.05330795	      7.40206168	     -3.21578259	     -7.49999987	     -9.40017335	     -2.52170947	     -0.96343323	      6.92131813	    -11.17721504	     17.28784222	     18.55678459	     91.60448244	      9.73855800	    -13.00290319	     17.41458295	     17.28800126	     99.50804412
      1.38333330	     -2.61991167	      3.50395313	     -8.64769219	     -0.04763168	      1.38577118	     -0.13587296	      5.86857491	     -5.88755359	      1.23635050	     12.06387055	      0.21055426	     10.88999643	    -13.20926063	     -7.49999987	      1.74946237	      3.08718709	     -1.70913542	      3.59679108	      0.06277585	      7.23180941	     -3.65098167	     -7.49999987	     -9.67074188	     -2.46733837	     -0.93106699	      6.09433819	    -11.47948145	     17.25697889	     18.18584426	     88.19295860	      9.25544081	    -13.16496630	     18.73460445	     15.90609678	     96.20010510
      1.40000000	     -3.02617759	      3.54764113	     -8.82917073	     -0.04776534	      1.38564564	     -0.13581646	      6.57992355	     -5.83886711	      1.20784723	     12.50401937	      0.21823631	     11.02516097	    -13.06266572	     -7.49999987	      2.50166020	      3.01550849	     -2.06343114	      4.12635241	      0.07201844	      7.39341422	     -3.60491877	     -7.49999987	    -10.13887194	     -2.36076321	     -1.14536145	      5.26824051	    -11.76877787	     16.68383468	     18.17024644	     87.29512766	      8.27020906	    -13.41338280	     18.46803944	     15.59601916	     95.31245428
      1.41666670	     -3.12294887	      3.55793593	     -8.98272898	     -0.04680087	      1.39259325	     -0.13553606	      6.82593246	     -5.80242437	      1.16857858	     12.74064269	      0.22236616	     10.97944066	    -13.00022965	     -7.49999987	      2.81953318	      2.96808983	     -2.15880103	      4.50426218	      0.07861421	      7.35562568	     -3.64443858	     -7.49999987	    -10.89838623	     -2.27490168	     -1.12402414	      4.34482980	    -12.13704013	     16.57656482	     17.80469323	     87.26959065	      7.20562476	    -13.61958686	     18.43623615	     15.17153085	     95.28488839
